<svg id="Layer_1" data-name="Layer 1" xmlns="http://www.w3.org/2000/svg" viewBox="0 0 500 36"><defs><style>.cls-1,.cls-2{fill:#ffde17;}.cls-2{font-size:24px;font-family:LeMondeLivreStd-Bold, Le Monde Livre Std;font-weight:700;}.cls-3{letter-spacing:0em;}.cls-4{letter-spacing:0em;}</style></defs><path class="cls-1" d="M15,3A15,15,0,1,0,30,18,15,15,0,0,0,15,3Zm9,12h-.5A1.5,1.5,0,0,0,22,13.5H20.5V26H17V13.5H14v9a3.5,3.5,0,0,1-7,0h.5a1.5,1.5,0,0,0,3,0v-9H7v-3H20.5A3.5,3.5,0,0,1,24,14Z"/><rect class="cls-1" x="49" width="2" height="36"/><text class="cls-2" transform="translate(70 24.95)">JU<tspan class="cls-3" x="27.53" y="0">S</tspan><tspan x="40.39" y="0">T TU</tspan><tspan class="cls-4" x="94.73" y="0">T</tspan><tspan x="109.7" y="0">ORING</tspan></text></svg>